<?xml version="1.0" encoding="UTF-8"?>
<svg id="Layer_1" xmlns="http://www.w3.org/2000/svg" version="1.1" viewBox="0 0 92 53">
  <!-- Generator: Adobe Illustrator 29.0.1, SVG Export Plug-In . SVG Version: 2.1.0 Build 192)  -->
  <defs>
    <style>
      .st0 {
        fill: #b3b3b3;
        fill-rule: evenodd;
      }
    </style>
  </defs>
  <path class="st0" d="M79.2,3.9C74.1,1.3,68.5,0,62.8,0c-5.7,0-11.3,1.3-16.4,3.9-5.1,2.6-9.4,6.4-12.7,11h8.1c2.7-2.9,5.9-5.3,9.5-6.9,3.6-1.6,7.5-2.4,11.5-2.4s7.9.8,11.5,2.4c3.6,1.6,6.9,4,9.5,6.9h8.1c-3.3-4.6-7.6-8.4-12.7-11ZM58,25.8v17.1c0,6.2,4.5,9.6,10.7,9.6,2.2,0,4.4-.4,6.4-1.3v-6c-1.6.7-3.3,1.1-5.1,1.1-3.4,0-5.2-1.4-5.2-4.6v-16h10.3v-5.8h-10.3v-9.9l-6.5,3.2v6.7h-7.9v5.8h7.6ZM0,35.6C0,26.2,7.8,18.8,17.9,18.8s11.2,2.6,14.3,6.5l-4.4,4.4c-1.2-1.5-2.7-2.7-4.3-3.5-1.7-.8-3.6-1.3-5.5-1.3-6,0-10.9,4.5-10.9,10.7s4.8,10.8,10.9,10.8c2,0,3.9-.5,5.7-1.3,1.8-.9,3.3-2.1,4.5-3.7l4.3,4.2c-2.9,4.1-8.5,6.8-14.5,6.8C7.8,52.5,0,45.2,0,35.6ZM45.1,20h-6.9v31.4h6.9v-31.4ZM87.5,20h-6.9v31.4h6.9v-31.4Z"/>
</svg>