<?xml version="1.0" encoding="UTF-8"?>
<svg id="Layer_1" xmlns="http://www.w3.org/2000/svg" version="1.1" viewBox="0 0 240 28">
  <!-- Generator: Adobe Illustrator 29.0.1, SVG Export Plug-In . SVG Version: 2.1.0 Build 192)  -->
  <defs>
    <style>
      .st0 {
        fill: #e6e6e6;
      }

      .st1 {
        fill: #ccc;
      }

      .st2 {
        fill: #b3b3b3;
      }

      .st3 {
        fill: #999;
      }
    </style>
  </defs>
  <path class="st0" d="M20.2,1.5c-1.9-.9-4-1.5-6.2-1.5s-3.7.4-5.4,1.1l6.1,4.9,6.2,5h6.8c-.9-4.1-3.7-7.6-7.4-9.4Z"/>
  <path class="st1" d="M8.6,1.1C4.6,2.8,1.5,6.3.4,10.6c-.3,1.1-.4,2.2-.4,3.4s.1,2.3.4,3.4l4.2-3.4L14.6,6,8.6,1.1Z"/>
  <path class="st3" d="M27.6,17h-6.8l-6.2,5,5.6,4.5c3.7-1.9,6.5-5.3,7.4-9.4Z"/>
  <path class="st2" d="M14.6,22L4.7,14,.4,17.4c1.1,4.3,4.1,7.8,8.2,9.5,1.7.7,3.5,1.1,5.4,1.1s4.4-.5,6.2-1.5l-5.6-4.5Z"/>
  <path class="st2" d="M40.5,8.5h-4.2v-1.5h10.1v1.5h-4.3v12.5h-1.6v-12.5ZM48.3,5.9h1.5v6.4c.4-.6.9-1,1.5-1.4.6-.3,1.3-.5,2.1-.5s1.3.1,1.8.3c.5.2,1,.5,1.4.9.4.4.7.9.9,1.5.2.6.3,1.2.3,1.9v5.9h-1.6v-5.8c0-1-.3-1.8-.8-2.4-.5-.6-1.3-.9-2.3-.9s-.9,0-1.3.2c-.4.2-.7.4-1,.7-.3.3-.5.7-.7,1.1-.2.4-.2.9-.2,1.4v5.7h-1.6V5.9ZM65.6,21.2c-.8,0-1.6-.1-2.2-.4-.7-.3-1.2-.6-1.7-1.1-.5-.5-.8-1-1.1-1.7-.3-.6-.4-1.4-.4-2.1s.1-1.5.4-2.1c.3-.7.6-1.2,1.1-1.7.5-.5,1-.9,1.7-1.1.7-.3,1.4-.4,2.2-.4s1.4.1,2.1.4c.6.3,1.2.6,1.7,1.1.5.5.8,1,1.1,1.7.3.6.4,1.3.4,2.1v.7h-9.1c0,.5.2.9.4,1.4.2.4.5.8.8,1.1.3.3.7.5,1.2.7.5.2,1,.2,1.5.2.8,0,1.5-.2,2.1-.5.6-.3,1-.8,1.4-1.5l1.3.8c-.5.8-1.2,1.5-1.9,1.9-.8.5-1.7.7-2.9.7ZM65.5,11.8c-.5,0-1,0-1.4.2-.4.2-.8.4-1.1.7-.3.3-.6.6-.8,1-.2.4-.4.8-.5,1.3h7.5c-.1-1-.5-1.8-1.2-2.3-.7-.6-1.5-.9-2.5-.9ZM85,21.2c-1,0-2-.2-2.8-.6-.9-.4-1.6-.9-2.3-1.5-.6-.6-1.1-1.4-1.5-2.3-.4-.9-.6-1.8-.6-2.8s.2-1.9.6-2.8c.4-.9.9-1.6,1.5-2.3.6-.6,1.4-1.2,2.3-1.5.9-.4,1.8-.6,2.8-.6s1.3,0,1.9.3c.6.2,1.2.4,1.7.7s1,.7,1.4,1.1c.4.4.8.9,1.1,1.4l-1.4.8c-.5-.9-1.1-1.5-2-2.1-.8-.5-1.8-.8-2.8-.8s-1.5.1-2.2.5c-.7.3-1.3.7-1.8,1.2-.5.5-.9,1.1-1.2,1.8-.3.7-.4,1.4-.4,2.2s.1,1.5.4,2.2c.3.7.7,1.3,1.2,1.8.5.5,1.1.9,1.8,1.2.7.3,1.4.4,2.2.4,1.2,0,2.2-.3,3-.8.8-.6,1.5-1.3,1.9-2.2l1.4.7c-.3.6-.7,1.1-1.1,1.6-.4.5-.9.9-1.5,1.2-.5.3-1.1.6-1.8.8-.6.2-1.3.3-2,.3ZM93.6,5.9h1.6v15.1h-1.6V5.9ZM103.1,21.2c-.8,0-1.5-.1-2.1-.4-.7-.3-1.2-.7-1.7-1.1-.5-.5-.9-1.1-1.1-1.7-.3-.6-.4-1.4-.4-2.1s.1-1.5.4-2.1c.3-.7.7-1.2,1.1-1.7.5-.5,1.1-.9,1.7-1.1.7-.3,1.3-.4,2.1-.4s1.5.1,2.1.4c.7.3,1.2.7,1.7,1.1.5.5.9,1.1,1.1,1.7.3.7.4,1.4.4,2.1s-.1,1.5-.4,2.1c-.3.6-.7,1.2-1.1,1.7-.5.5-1.1.9-1.7,1.1-.7.3-1.4.4-2.1.4ZM103.1,19.7c.5,0,1,0,1.5-.3.5-.2.9-.5,1.2-.8.3-.4.6-.8.8-1.2.2-.5.3-1,.3-1.5s0-1.1-.3-1.5c-.2-.5-.5-.9-.8-1.2-.3-.4-.7-.6-1.2-.8-.5-.2-1-.3-1.5-.3s-1,0-1.5.3c-.5.2-.9.5-1.2.8-.3.4-.6.8-.8,1.2-.2.5-.3,1-.3,1.5s0,1.1.3,1.5c.2.5.5.9.8,1.2.3.3.7.6,1.2.8.5.2,1,.3,1.5.3ZM111,10.6h1.5v1.9c.2-.7.6-1.2,1.1-1.6.5-.4,1.1-.5,1.9-.5s1.3.1,1.7.4l-.7,1.5c-.1-.1-.3-.2-.5-.2-.2,0-.5,0-.7,0-.9,0-1.5.3-2,.8-.5.5-.7,1.3-.7,2.5v5.7h-1.5v-10.3ZM123.1,21.2c-.8,0-1.5-.1-2.1-.4-.7-.3-1.2-.7-1.7-1.1-.5-.5-.9-1.1-1.1-1.7-.3-.6-.4-1.4-.4-2.1s.1-1.5.4-2.1c.3-.7.7-1.2,1.1-1.7.5-.5,1.1-.9,1.7-1.1.7-.3,1.4-.4,2.1-.4s1.5.1,2.1.4c.7.3,1.2.7,1.7,1.1.5.5.9,1.1,1.1,1.7.3.7.4,1.4.4,2.1s-.1,1.5-.4,2.1c-.3.6-.7,1.2-1.1,1.7-.5.5-1.1.9-1.7,1.1-.7.3-1.4.4-2.1.4ZM123.1,19.7c.5,0,1,0,1.5-.3.5-.2.9-.5,1.2-.8.3-.4.6-.8.8-1.2.2-.5.3-1,.3-1.5s0-1.1-.3-1.5c-.2-.5-.5-.9-.8-1.2-.3-.4-.7-.6-1.2-.8-.5-.2-1-.3-1.5-.3s-1,0-1.5.3c-.5.2-.9.5-1.2.8-.3.4-.6.8-.8,1.2-.2.5-.3,1-.3,1.5s0,1.1.3,1.5c.2.5.5.9.8,1.2.3.3.7.6,1.2.8.5.2,1,.3,1.5.3ZM133.3,15.7l-3.9-5h1.9l3,3.9,3-3.9h1.9l-3.9,5,4.1,5.3h-1.9l-3.2-4.1-3.1,4.1h-2l4.1-5.3ZM152.7,21.2c-1,0-2-.2-2.8-.6-.9-.4-1.6-.9-2.3-1.5-.6-.6-1.1-1.4-1.5-2.3-.4-.9-.6-1.8-.6-2.8s.2-1.9.6-2.8c.4-.9.9-1.6,1.5-2.3.6-.6,1.4-1.2,2.3-1.5.9-.4,1.8-.6,2.8-.6s1.3,0,1.9.3c.6.2,1.2.4,1.7.7.5.3,1,.7,1.4,1.1.4.4.8.9,1.1,1.4l-1.4.8c-.5-.9-1.1-1.5-2-2.1-.8-.5-1.8-.8-2.8-.8s-1.5.1-2.2.5c-.7.3-1.3.7-1.8,1.2-.5.5-.9,1.1-1.2,1.8-.3.7-.4,1.4-.4,2.2s.1,1.5.4,2.2c.3.7.7,1.3,1.2,1.8.5.5,1.1.9,1.8,1.2.7.3,1.4.4,2.2.4,1.2,0,2.2-.3,3-.8.8-.6,1.5-1.3,1.9-2.2l1.4.7c-.3.6-.7,1.1-1.1,1.6-.4.5-.9.9-1.5,1.2-.5.3-1.1.6-1.8.8-.6.2-1.3.3-2,.3ZM166.1,21.2c-.8,0-1.5-.1-2.1-.4-.6-.3-1.2-.7-1.7-1.1-.5-.5-.9-1.1-1.1-1.7-.3-.6-.4-1.4-.4-2.1s.1-1.5.4-2.1c.3-.7.7-1.2,1.1-1.7.5-.5,1.1-.9,1.7-1.1.7-.3,1.4-.4,2.1-.4s1.5.1,2.1.4c.7.3,1.2.7,1.7,1.1.5.5.9,1.1,1.1,1.7.3.7.4,1.4.4,2.1s-.1,1.5-.4,2.1c-.3.6-.7,1.2-1.1,1.7-.5.5-1.1.9-1.7,1.1-.6.3-1.4.4-2.1.4ZM166.1,19.7c.5,0,1,0,1.5-.3.5-.2.9-.5,1.2-.8.3-.4.6-.8.8-1.2.2-.5.3-1,.3-1.5s0-1.1-.3-1.5c-.2-.5-.5-.9-.8-1.2-.3-.4-.7-.6-1.2-.8-.5-.2-1-.3-1.5-.3s-1,0-1.5.3c-.5.2-.9.5-1.2.8-.3.4-.6.8-.8,1.2-.2.5-.3,1-.3,1.5s0,1.1.3,1.5c.2.5.5.9.8,1.2.3.3.7.6,1.2.8.5.2,1,.3,1.5.3ZM173.7,10.6h1.5v1.5c.3-.5.8-1,1.3-1.3.6-.3,1.2-.5,2-.5s1.7.2,2.3.6c.6.4,1,.9,1.3,1.6.3-.7.8-1.2,1.5-1.6.6-.4,1.4-.6,2.3-.6,1.4,0,2.5.4,3.3,1.2.7.8,1.1,1.9,1.1,3.2v6.1h-1.6v-6.1c0-.9-.3-1.7-.8-2.2-.5-.6-1.2-.9-2.2-.9s-.8,0-1.2.2c-.4.1-.7.3-.9.6-.3.3-.5.6-.6,1-.2.4-.2.8-.2,1.4v5.9h-1.6v-6.2c0-.9-.2-1.6-.7-2.1-.5-.5-1.2-.8-2.1-.8s-1.6.3-2.2.9c-.6.6-.8,1.4-.8,2.4v5.8h-1.6v-10.3h0ZM198.6,21.2c-.8,0-1.5-.2-2.2-.5-.7-.3-1.3-.8-1.7-1.5v6.2h-1.5v-14.7h1.5v1.9c.2-.3.5-.6.7-.9.3-.3.6-.5.9-.7.3-.2.7-.3,1.1-.4.4,0,.8-.1,1.1-.1.7,0,1.4.1,2,.4.6.3,1.2.6,1.7,1.1.5.5.9,1,1.1,1.7.3.7.4,1.4.4,2.2s-.1,1.5-.4,2.2c-.3.7-.6,1.2-1.1,1.7-.5.5-1,.8-1.7,1.1-.6.3-1.3.4-2.1.4ZM198.5,19.7c.5,0,1,0,1.5-.3.5-.2.9-.5,1.2-.8.3-.4.6-.8.8-1.2.2-.5.3-1,.3-1.6s0-1.1-.3-1.5-.5-.9-.8-1.2c-.3-.4-.7-.6-1.2-.8-.5-.2-1-.3-1.5-.3s-1.1.1-1.5.3c-.5.2-.9.5-1.2.8-.3.4-.6.8-.8,1.2-.2.5-.3,1-.3,1.5s0,1.1.3,1.5c.2.5.5.9.8,1.2.3.4.8.6,1.2.8.5.2,1,.3,1.5.3ZM210.9,21.2c-.7,0-1.4-.1-2.1-.4-.6-.3-1.2-.6-1.7-1.1-.5-.5-.8-1-1.1-1.7-.3-.7-.4-1.4-.4-2.2s.1-1.5.4-2.2c.3-.7.6-1.2,1.1-1.7.5-.5,1-.8,1.7-1.1.6-.3,1.3-.4,2-.4s1.5.2,2.2.5c.7.4,1.3.9,1.7,1.5v-1.8h1.5v10.3h-1.5v-1.8c-.2.3-.5.6-.7.9-.3.3-.6.5-.9.6-.3.2-.7.3-1.1.4-.4,0-.7.1-1.1.1ZM211,19.7c.5,0,1.1-.1,1.5-.3.5-.2.9-.5,1.2-.8.3-.4.6-.8.8-1.2.2-.5.3-1,.3-1.5s0-1-.3-1.5c-.2-.5-.5-.9-.8-1.2-.3-.4-.8-.6-1.2-.8-.5-.2-1-.3-1.5-.3s-1,.1-1.5.3c-.5.2-.9.5-1.2.8-.3.4-.6.8-.8,1.2s-.3,1-.3,1.5,0,1.1.3,1.6c.2.5.5.9.8,1.2.3.4.7.6,1.2.8.5.2,1,.3,1.5.3ZM219.2,10.6h1.5v1.7c.4-.6.8-1,1.5-1.4.6-.4,1.3-.5,2.1-.5s1.3.1,1.8.3c.5.2,1,.5,1.4.9.4.4.7.9.9,1.5.2.6.3,1.2.3,1.9v5.9h-1.6v-5.8c0-1-.3-1.8-.8-2.4-.5-.6-1.3-.9-2.3-.9s-.9,0-1.3.2c-.4.2-.7.4-1,.7-.3.3-.5.7-.7,1.1-.2.4-.2.9-.2,1.4v5.7h-1.6v-10.3ZM232.1,25.3l2.1-4.9-4.3-9.8h1.7l3.5,8,3.3-8h1.7l-6.4,14.7h-1.6Z"/>
</svg>