<?xml version="1.0" encoding="UTF-8"?>
<svg id="Layer_1" xmlns="http://www.w3.org/2000/svg" version="1.1" viewBox="0 0 187 57">
  <!-- Generator: Adobe Illustrator 29.0.1, SVG Export Plug-In . SVG Version: 2.1.0 Build 192)  -->
  <defs>
    <style>
      .st0 {
        fill: #b3b3b3;
      }
    </style>
  </defs>
  <path class="st0" d="M15.5,0c-.2.2,0,.8.7,1.6l.4.4h-.3c-.7-.1-1.9-.3-2.1-.3-.6,0-.4.9.3,1.4.1.1.2.2.2.2,0,0-.5,0-1,0-1,0-1.1,0-1.1.4s.1.7.4,1l.2.2h-.6c-.6,0-.6,0-.6.2,0,.3.2.7.6.9.4.3.4.3.1.3-.7,0-.6.7.2,1.1.3.1.3.1,0,.6-.5.9-.5,1,0,2,1,1.6,2.7,2.9,4.3,3.3.2,0,.4.1.4.2s-.2.3-.3.7c-1.1,2.1-1.1,4.6,0,5.9.8.9.8.8-1.1,2.8-.4.5-1.2.9-1.6,1.1-.4.1-.5.2-.5.3,0,0,.6,0,1-.2.2,0,.4-.1.3,0,0,0-.2.2-.4.3-.4.3-1,.6-1.5.8-.4.1-.6.2-.4.3.3.1,1.7-.3,2.2-.7.2-.2.3-.2.3,0s.2.7.3.7,0-.2,0-.6c0-.8.3-1.3,1.4-2.5.6-.6.6-.6,1.5-.7,2.8-.4,4.3-.9,5.8-2.2.5-.4.3-.4-.4,0-2.5,1.6-5,1.9-6.2.8-1.5-1.5-1.6-3.6-.4-6.2.5-.9.5-1.1-.1-1.2-1.4-.3-2.7-1.1-3.7-2.4-1.1-1.4-1.1-1.4-.7-2.4l.3-.7v-.2c-.2,0-.4-.2-.5-.3-.4-.2-.3-.2.1-.3.6,0,1-.4.6-.5,0,0-.3-.1-.5-.2-.2-.1-.5-.3-.6-.4l-.2-.2h.8c1.1,0,1.3-.2.6-.6-.4-.2-.8-.6-.9-.8,0-.2,0-.2,1.9,0,1.4,0,1.5,0,1.5-.2s0-.2-.6-.4c-.8-.3-1.7-.9-1.6-1,0,0,.6,0,1.3.1,2.1.2,2.5.1,1.7-.4-.4-.3-1.2-1.1-1.1-1.2,0,0,.2,0,.4,0,.5.2,2,.6,3.4.9,1.2.3,2.3.5,6.5,1.2,5.1.9,7,1.5,7.5,2.3.3.4,0,.9-.8,2-2.2,2.7-2.2,2.9-1.4,6.5.5,2.1.6,1.9-1.4,3.4-.7.5-1.2,1-1.2,1,.1,0,.8-.4,1.5-.8,2.7-1.9,4.1-1.7,7,1.3,1.9,2,2.7,2.3,5.1,1.7.9-.2.9-.3-.2-.1-2.5.4-4-.6-3.5-2.2.5-1.6,5.2-2.8,7.3-1.9h.2c0,0-.4,0-.4,0-.6,0-.9,0-.9.5s.1.4.8.4c.5,0,.7,0,.8.1.4.2.4.5,0,.6-.6.1-3,.5-3.9.6-1.3.2-1.3.2,0,.3,1.9,0,2.8.4,3.1,1.1,1,2.4-2,3.6-7.7,3.1-3.1-.2-3.4-.2-8.2.9-1.2.3-2.2.5-2.2.5,0,0,.1-.1.3-.3.2-.2.3-.3.3-.4,0-.1-.1-.2-.2,0-1,1.2-5.2,2.8-6.9,2.6h-.5c0,0,.5-.4.5-.4.5-.3,1.2-.7,1.7-.9.2,0,.3-.3.1-.3-.4,0-2.1.8-2.8,1.2-.3.3-.5.3-1.2.5-1.2.3-3,1.1-4.1,1.8-.2.2-.7.3-.9.4-.5.1-.5.2-1,.7-1,1.1-8.4,7.5-8.8,7.7-.2,0-.5.1-1.1.1h-.8s.5-.2.5-.2c.4-.2.5-.3,1.4-1.1,1.2-1.3,8-7,8.6-7.2.2,0,.5-.3.8-.6,1-1,3.1-2.1,4.7-2.4,2.1-.5,3.1-.9,4.6-1.9.4-.2.7-.5.8-.5.3-.2,0-.2-.3,0-2,1.2-5.1,2.1-5.5,1.7h-.1c0-.1.2-.3.2-.3,0-.1.5-.5.9-.8.7-.6.9-.8.6-.8s-1.4.9-3,2.1c-2.2,1.6-3,2.1-3.3,2.2-.5.2-.7.3-1,.7-.3.4-8.6,7.6-9,7.8-.2.1-.4.1-1.1.2-1,0-1.1,0-1.1.2s0,.1.7.1.7,0,.7,0c0,.1-.1.2-1.1.4-.9.2-1.1.2-1.1.3,0,.2,0,.2,1.1,0,1.5-.3,1.5-.3-.3.4C.2,38,0,38.1,0,38.2c0,.2.3,0,1.3-.3,1.3-.5,1.1-.4,1.2-.3,0,.1,0,.1.7,0,.6,0,.7,0,.7,0s-.1.1-1.1.3c-.8.2-1.1.2-1.1.3,0,.2.2.2,1.1,0,1.4-.3,1.3-.2-.4.4-.8.3-1.1.4-1.1.5,0,.2.1.2,1-.1,2.5-.9,2.3-.9,2.8-1.4,1.1-1.2,1.4-1.4,7.7-6.8.5-.4.9-.7,1-.7.6-.2.8-.4,1.1-.8l.3-.4,1.3-.7c2.3-1.2,4.1-1.7,5.5-1.7s2.2-.4,3.8-1.1c.4-.2,2.9-.8,4.8-1.2,5.3-1.1,5.5-1.1,7.4-.9,5.2.6,8.9-.5,8.9-2.7,0-1.3-.3-1.6-1.5-2.1h-.4c0-.1,5.3-.9,5.3-.9,5.7-.9,5.5-.8,5.5-1.1s-.3-.4-5.2-.4h-3.2s-.8-.3-.8-.3c-1.5-.5-2.4-.5-4.2-.1-2.7.6-4.1,1.5-4.1,2.7s-.1,0-.7-.6c-2-1.9-2.6-2.3-4.2-2.5-.9-.1-1.7-2.2-1.7-4.3,0-1.1.1-1.3,1.9-3.1,1.6-1.7,1.8-2,1.3-2.9-.7-1.4-2.2-1.9-11.3-3.3-3.7-.6-6.1-1.1-7.4-1.6-.5-.2-.8-.2-.9-.1ZM54.5,16.6c.4,0,.6,0,.6,0,0,0-6.9.5-7.2.5h-.3s.3-.1.3-.1c1.4-.5,3.4-.7,6.5-.5ZM52.4,17.1c0,0-.2,0-.2,0,0,0,0,0,.1,0s.2,0,.1,0ZM51.9,17.2c0,0-1,.1-2,.3-1,.1-1.9.3-1.9.3,0,0-.1,0-.1-.1v-.2l1.8-.2c1.6-.1,2.7-.2,2.2-.1ZM37.3,23.9c-.3.6-.2,2.7.2,3.7.2.5.7.8,2.4,1.5,1.5.6,1.8.9,1.3,1.5-.6.7-2.2,1.7-6.6,4.1-3.8,2.1-5.5,3.1-6.8,4l-.5.4.2-.4c.1-.2.3-.5.4-.7.5-.7.1-.6-1.4,0-.7.3-1.2.6-1.2.5,0,0,.3-.5.8-.9.6-.5.7-.7.5-.8,0,0-.7.2-1.5.6-.7.3-1.4.6-1.4.5,0,0,.2-.5.5-.8.5-.6.3-.7-.6-.4-.7.3-.8.3-.2-.3.7-.7.5-.9-.6-.5,0,0,0,0,.1-.2.3-.3.3-.4-.2-.8-.6-.4-.6-.5-.4-1.2.6-1.5,1.4-2.6,2.7-3.4.5-.3.5-.5,0-.8-1.1-.6-1.9-1.4-2.3-2.4-.2-.5-.3-.6-.2-.2.1,1,.9,2,1.9,2.7.5.3.5.3,0,.6-1.4,1-2.9,3.1-2.8,4.3,0,.3.5.7.9.9,0,0,0,.2-.2.3-.4.4-.4.7,0,.7h.3s-.2.3-.2.3c-.5.8-.3,1,.9.5,0,0,0,0,0,.2-.2.3-.2.7,0,.9.1.2.3.1,1-.2.3-.1.7-.3.7-.3h.1c0,0-.1.1-.1.1-.2.3-.3.6-.2.8.1.4,0,.4,1.5-.3l.9-.4-.2.5c-.6,1.2-.3,1.5.8.7,1.2-.9,2.8-1.8,7.2-4.1,6.2-3.2,7.3-4,7.3-5.3,0-.6-.3-.9-1.5-1.2-3-.9-3.3-1.2-3.4-3.9,0-.5,0-1,0-.9ZM49.5,24.9c-.4.3-.8,1.2-7.5,18.1-4.2,10.8-4.9,11.8-7.6,12.4-.6.1-.8.6-.5,1v.2h4.7c5.1,0,4.8,0,4.9-.4,0-.4-.2-.6-.8-.7-2.5-.3-3-1.7-1.8-4.8,1-2.8,2.4-6.4,2.6-6.4.1-.1.5-.1,5.5-.1s5.4,0,5.5.1c.1.1,2.5,6.4,2.8,7.4.8,2.7.5,3.4-1.7,3.8-1.1.2-1.1.2-1.2.5-.1.2,0,.5.1.7.1.1,11.1.2,11.4,0,.3-.2.3-.8,0-.9,0,0-.4-.1-.7-.2-2.4-.4-3-1.2-5.3-7.1-1-2.5-4.5-11.8-7-18.3-2-5.4-1.9-5.1-2.6-5.1-.3,0-.5,0-.6.1ZM100.7,25.7c-2.4.7-2.5.8-2.5,1.1s.2.4,1.1.6c.5.1.8.5,1,1.3,0,.4.1,10.3,0,10.5-.1.3-.3.3-1.2-.1-7.3-3.7-15.8,4-13.2,12,1.9,5.7,8.7,7.8,13.6,4.2.7-.5,1-.4,1,.6s0,1.2,2.9.4c2.4-.6,2.4-.7,2.4-1.1s-.2-.5-.7-.5-.9-.2-1.1-.5c-.4-.6-.4.3-.3-14.9v-13.9s-.1-.2-.1-.2c-.2-.2-.3-.2-2.8.5ZM129.5,25.7c-2.3.7-2.4.7-2.5,1.1,0,.3.2.4.8.6.6.1.8.3,1,.6.4.6.3,0,.3,15,0,8.8,0,13.9,0,13.9.1.2.3.2,1.1-.1,1.4-.5,1.6-.6,3.2-.2,2.4.5,3.4.6,4.7.5,5.3-.4,8.6-4.2,8.6-9.7s-2.9-8.7-7.7-9.1c-2.3-.2-4.1.5-6,2.1l-.6.5v-7.8s0-7.8,0-7.8l-.2-.2c-.3-.2-.4-.2-2.8.5ZM49.2,29.8c.1.2,4.5,12.2,4.4,12.3-.1.4.1.4-4.8.4h-4.5l-.2-.2c-.2-.2-.3-.2,1.7-5,1-2.5,2-5.2,2.3-6,.6-1.6.7-1.8,1-1.5ZM169.2,38.4c-2.5.7-2.5.7-2.5,1.1s.2.5.7.5c.8,0,1,.3,1.3,1,.2.5.2,9.4.1,11.7-.1,2.4-.5,2.8-2.3,3-.5,0-.6.2-.5.6v.2c0,0,4.5,0,4.5,0,4.9,0,4.6,0,4.6-.4s-.1-.4-.7-.4c-1.3-.1-1.8-.6-2-2.1-.2-1.2-.2-9.7,0-10.4.6-2,2.2-3.3,4.2-3.3,2.5,0,4,1.3,4.5,3.9.2.7.2,9.2,0,10-.2,1.4-.7,1.8-1.9,2-.6,0-.7,0-.6.5v.3h8.4v-.2c.2-.3,0-.5-.3-.6-2-.3-2-.3-2-7,0-6.1-.1-7-1.3-8.5-2-2.5-6.8-2.7-10.4-.4-.8.5-.9.4-.9-.8s.1-1.4-2.7-.6ZM156.5,38.2c-5.7.5-9.3,5.7-8,11.8,1.6,7.5,11.6,9.6,16.2,3.3,2.3-3.1,2.2-8.5,0-11.6-1.6-2.2-4.9-3.8-7.4-3.6,0,0-.4,0-.7,0ZM67,38.4c-1.2,0-2.2.1-2.3.2-.3,0-.5.2-.5.5s.1.4.6.5c1.8.5,2,1.1,2.1,8.1,0,5.1,0,5.7.6,6.8,1.5,3.4,7.3,3.6,11.1.6.8-.7,1-.6,1,.6s-.2,1.2,2.8.4c2.4-.6,2.5-.7,2.5-1.1s-.1-.6-.8-.6c-.9,0-1.3-.3-1.5-1.1-.1-.3-.1-.8-.1-7.6v-7.3s-.2-.1-.2-.1c-.1,0-.3,0-2.8,0l-2.7.2v.2c-.5.4-.3.6.5.8,1.5.4,1.9,1,2.1,2.8.1,1.1,0,8.3,0,8.8-.9,4.6-7.2,5.8-8.6,1.7-.3-1-.3-.7-.4-7.8v-6.6s-.2-.1-.2-.1c-.2-.1-.3-.1-3,0ZM108.9,38.4c-2.4.2-2.4.2-2.6.5-.1.3,0,.5.4.6,1,.3,1.3.5,1.6,1.1.5.9.5,1.5.6,7,0,5.4,0,5.7.6,6.9,1.5,3.4,7.3,3.6,11.2.5.8-.6,1-.5,1,.7,0,1.2-.2,1.2,2.8.4,2.4-.7,2.4-.6,2.4-1.1s-.1-.5-.7-.5c-.8,0-1.1-.3-1.3-1.2,0-.3,0-1.3,0-7.5v-7.3c-.1,0-.3-.2-.3-.2h-2.4c-3.8.4-3.6.3-3.6.8s.1.4.7.5c1.3.3,1.8.9,2.1,2.3.2.8.2,8.5,0,9.3-.9,4.6-7,6-8.6,1.9-.4-.9-.4-.6-.4-7.9,0-6.5,0-6.7-.2-6.8-.2-.1-.4-.1-3.3,0ZM96.8,39.3c2,.4,3.1,1.8,3.5,4.5.1.9.2,8.2,0,8.8-.3,1.6-3.4,3.5-5.5,3.3-4.1-.4-6.7-5.3-5.6-10.8.8-4.2,3.9-6.5,7.6-5.7ZM158.8,39.3c2.7.7,4,3.2,4,8.2,0,5.3-1.4,7.9-4.5,8.4-4.6.7-7-3.1-6.4-10.1.4-5.2,2.9-7.5,6.9-6.6ZM138.9,40.1c2.8.9,4.3,4,4.2,8.7-.1,4.8-2,7.2-5.5,7.3-2.5,0-4.3-1.3-4.9-3.5-.2-.7-.3-9.6,0-10.2.3-.8,1.9-1.9,3.4-2.3.9-.2,2-.2,2.9,0Z"/>
</svg>