<?xml version="1.0" encoding="UTF-8"?>
<svg id="Layer_1" xmlns="http://www.w3.org/2000/svg" xmlns:svg="http://www.w3.org/2000/svg" xmlns:sodipodi="http://sodipodi.sourceforge.net/DTD/sodipodi-0.dtd" xmlns:rdf="http://www.w3.org/1999/02/22-rdf-syntax-ns#" xmlns:inkscape="http://www.inkscape.org/namespaces/inkscape" xmlns:dc="http://purl.org/dc/elements/1.1/" xmlns:cc="http://creativecommons.org/ns#" version="1.1" viewBox="0 0 1000 323.7">
  <!-- Generator: Adobe Illustrator 29.0.1, SVG Export Plug-In . SVG Version: 2.1.0 Build 192)  -->
  <defs>
    <style>
      .st0 {
        fill: #b3b3b3;
      }
    </style>
  </defs>
  <g id="g4158">
    <polygon id="polygon9" class="st0" points="433.4 319 352.3 319 403 5.7 484 5.7 433.4 319"/>
    <path id="path11" class="st0" d="M727,13.3C711,7,685.7,0,654.4,0,574.4,0,518,42.7,517.7,103.7c-.7,45,40.3,70,71,85,31.3,15.3,42,25.3,42,39-.3,21-25.3,30.7-48.6,30.7s-49.7-5-76-16.7l-10.7-5-11.3,70.3c19,8.7,54,16.3,90.3,16.7,85,0,140.3-42,141-107,.3-35.7-21.3-63-68-85.3-28.3-14.3-45.7-24-45.7-38.7.3-13.3,14.7-27,46.7-27,26.3-.7,45.7,5.7,60.3,12l7.3,3.3,11-67.7h0Z" inkscape:connector-curvature="0"/>
    <path id="path13" class="st0" d="M834.7,208c6.7-18,32.3-87.7,32.3-87.7-.3.7,6.7-18.3,10.7-30l5.7,27s15.3,75,18.7,90.7h-67.3ZM934.7,5.7h-62.7c-19.3,0-34,5.7-42.3,26l-120.3,287.3h85s14-38.7,17-47h104c2.3,11,9.7,47,9.7,47h75L934.7,5.7h0Z" inkscape:connector-curvature="0"/>
    <path id="path15" class="st0" d="M284.7,5.7l-79.3,213.6-8.7-43.3c-14.7-50-60.7-104.3-112-131.3l72.7,274h85.7L370.3,5.7h-85.7Z" inkscape:connector-curvature="0"/>
    <path id="path17" class="st0" d="M131.7,5.7H1.3L0,12c101.7,26,169,88.7,196.7,164l-28.3-144c-4.7-20-19-25.7-36.7-26.3h0Z" inkscape:connector-curvature="0"/>
  </g>
</svg>