<svg width="780" height="127" viewBox="0 0 780 127" fill="none" xmlns="http://www.w3.org/2000/svg">
<path d="M52.8429 2.08862C63.644 2.08862 73.0297 3.90004 80.9831 7.51446C88.9533 11.112 95.0869 16.2261 99.3837 22.8483C103.697 29.479 105.854 37.3228 105.854 46.3715C105.854 55.3359 103.697 63.1714 99.3837 69.861C95.0869 76.5337 88.9533 81.6478 80.9831 85.1948C73.0297 88.725 63.644 90.4859 52.8429 90.4859H28.275V124.153H0V2.08862H52.8429ZM51.2926 67.4682C59.76 67.4682 66.2053 65.6399 70.6369 61.975C75.0602 58.3184 77.276 53.1117 77.276 46.3715C77.276 39.5218 75.0602 34.2645 70.6369 30.5995C66.2053 26.943 59.76 25.1063 51.2926 25.1063H28.275V67.4682H51.2926Z" fill="#B3B3B3"/>
<path d="M205.423 124.153L181.9 90.1491H155.917V124.153H127.642V2.08887H180.484C191.286 2.08887 200.671 3.90029 208.625 7.5147C216.595 11.1123 222.728 16.2264 227.025 22.8486C231.339 29.4792 233.496 37.3231 233.496 46.3717C233.496 55.4541 231.314 63.2811 226.958 69.8612C222.594 76.4245 216.41 81.4459 208.389 84.9255L235.754 124.153H205.423ZM204.918 46.3717C204.918 39.5221 202.702 34.2647 198.279 30.5998C193.847 26.9432 187.402 25.1065 178.934 25.1065H155.917V67.6707H178.934C187.402 67.6707 193.847 65.8087 198.279 62.0763C202.702 58.3524 204.918 53.1119 204.918 46.3717Z" fill="#B3B3B3"/>
<path d="M314.918 126.243C302.246 126.243 290.821 123.514 280.644 118.054C270.483 112.594 262.53 105.071 256.784 95.4744C251.029 85.8865 248.156 75.1023 248.156 63.1216C248.156 51.1494 251.029 40.3652 256.784 30.7688C262.53 21.181 270.483 13.6488 280.644 8.1893C290.821 2.72977 302.246 0 314.918 0C327.589 0 338.98 2.72977 349.09 8.1893C359.217 13.6488 367.188 21.181 372.984 30.7688C378.797 40.3652 381.713 51.1494 381.713 63.1216C381.713 75.1023 378.797 85.8865 372.984 95.4744C367.188 105.071 359.217 112.594 349.09 118.054C338.98 123.514 327.589 126.243 314.918 126.243ZM314.918 102.181C322.13 102.181 328.642 100.53 334.464 97.2269C340.277 93.9073 344.844 89.2735 348.147 83.3421C351.466 77.4108 353.134 70.6706 353.134 63.1216C353.134 55.5727 351.466 48.8325 348.147 42.9011C344.844 36.9698 340.277 32.3528 334.464 29.0501C328.642 25.7306 322.13 24.0624 314.918 24.0624C307.722 24.0624 301.218 25.7306 295.405 29.0501C289.583 32.3528 285.008 36.9698 281.689 42.9011C278.386 48.8325 276.735 55.5727 276.735 63.1216C276.735 70.6706 278.386 77.4108 281.689 83.3421C285.008 89.2735 289.583 93.9073 295.405 97.2269C301.218 100.53 307.722 102.181 314.918 102.181Z" fill="#B3B3B3"/>
<path d="M520.357 2.08887L467.514 124.153H439.61L386.936 2.08887H417.468L454.607 89.2729L492.284 2.08887H520.357Z" fill="#B3B3B3"/>
<path d="M587.317 126.242C569.86 126.242 556.278 121.423 546.572 111.785C536.867 102.13 532.014 88.3459 532.014 70.4339V2.08862H560.289V69.3892C560.289 91.2526 569.354 102.18 587.485 102.18C596.315 102.18 603.055 99.543 607.706 94.2604C612.356 88.9609 614.682 80.6705 614.682 69.3892V2.08862H642.586V70.4339C642.586 88.3459 637.733 102.13 628.027 111.785C618.321 121.423 604.748 126.242 587.317 126.242Z" fill="#B3B3B3"/>
<path d="M724.723 126.242C707.266 126.242 693.685 121.423 683.979 111.785C674.273 102.13 669.42 88.3459 669.42 70.4339V2.08862H697.695V69.3892C697.695 91.2526 706.76 102.18 724.891 102.18C733.721 102.18 740.461 99.543 745.112 94.2604C749.763 88.9609 752.088 80.6705 752.088 69.3892V2.08862H779.992V70.4339C779.992 88.3459 775.139 102.13 765.434 111.785C755.728 121.423 742.155 126.242 724.723 126.242Z" fill="#B3B3B3"/>
</svg>
