<svg width="1867" height="217" viewBox="0 0 1867 217" fill="none" xmlns="http://www.w3.org/2000/svg">
<mask id="mask0_1579_668" style="mask-type:luminance" maskUnits="userSpaceOnUse" x="0" y="0" width="1867" height="217">
<path d="M1866.92 0H0V216.16H1866.92V0Z" fill="white"/>
</mask>
<g mask="url(#mask0_1579_668)">
<path d="M340.1 216C340.044 216 339.993 216 339.937 216C328.851 215.939 318.969 209.704 314.144 199.723L281.852 132.923L247.417 200.059C242.378 209.886 232.067 215.991 220.509 215.991C208.952 215.991 198.64 209.886 193.601 200.059L159.167 132.923L126.875 199.723C122.05 209.704 112.168 215.939 101.082 216C101.026 216 100.974 216 100.918 216C89.8977 216 80.02 209.886 75.1115 200.008L4.19964 57.4116C-1.98264 44.9778 -1.30609 30.5154 6.01 18.7159C13.2748 6.99573 25.8213 0 39.5716 0H85.3064C104.978 0 122.792 10.9087 131.797 28.4726L158.537 80.6047L187.685 20.3156C193.769 7.73261 206.036 0.214536 220.5 0.214536C234.964 0.214536 247.231 7.72794 253.315 20.3156L282.463 80.6047L309.203 28.4726C318.208 10.9087 336.022 0 355.694 0H401.428C415.179 0 427.725 6.99573 434.99 18.7159C442.306 30.5154 442.983 44.9778 436.8 57.4116L365.902 200.008C360.994 209.881 351.116 215.995 340.096 216H340.1ZM295.182 106.918L335.145 189.575C336.489 192.359 339.032 192.672 340.063 192.676C341.089 192.676 343.637 192.396 345.013 189.626L415.911 47.0299C418.51 41.8018 418.24 35.958 415.165 30.9957C412.141 26.1174 407.135 23.3191 401.433 23.3191H355.698C344.822 23.3191 334.963 29.3681 329.966 39.1108L295.187 106.918H295.182ZM39.5716 23.3191C33.8699 23.3191 28.8634 26.1174 25.8399 30.9957C22.7651 35.958 22.4898 41.8018 25.0934 47.0299L95.9866 189.626C97.3631 192.396 99.9246 192.672 100.937 192.676C101.968 192.672 104.511 192.354 105.855 189.575L145.818 106.918L111.039 39.1108C106.042 29.3727 96.1826 23.3191 85.3064 23.3191H39.5716ZM171.877 106.61L214.35 189.421C215.895 192.438 219.45 192.672 220.5 192.672C221.848 192.672 225.147 192.354 226.65 189.421L269.123 106.61L232.309 30.464C229.286 24.2099 223.043 23.5383 220.5 23.5383C217.957 23.5383 211.714 24.2145 208.691 30.464L171.877 106.61Z" fill="#B3B3B3"/>
<path fill-rule="evenodd" clip-rule="evenodd" d="M1866.92 197.64C1864.74 197.643 1862.57 197.639 1860.39 197.635C1854.35 197.625 1848.3 197.615 1842.26 197.74C1840.18 197.78 1839.08 196.89 1838.11 195.37C1827.64 178.95 1817.17 162.53 1806.69 146.11C1806.36 145.596 1806.01 145.097 1805.59 144.513V144.51C1805.33 144.153 1805.06 143.764 1804.75 143.32C1803.36 144.923 1802.02 146.528 1800.69 148.116V148.121C1797.73 151.664 1794.85 155.122 1791.65 158.27C1786.89 162.96 1785.05 168.1 1785.61 174.74C1785.96 178.852 1785.89 182.998 1785.81 187.148C1785.77 189.699 1785.73 192.253 1785.78 194.8C1785.83 197.12 1785.07 197.77 1782.83 197.71C1777.35 197.57 1771.86 197.5 1766.39 197.73C1763.46 197.85 1762.91 196.78 1762.92 194.09C1762.98 153.241 1762.97 112.398 1762.97 71.5516C1762.97 62.4313 1762.97 53.3108 1762.97 44.1899V14.0599C1764.51 14.0599 1766.04 14.0581 1767.56 14.0564C1773.2 14.0497 1778.69 14.0433 1784.18 14.1299C1784.7 14.1299 1785.42 15.1299 1785.67 15.8099C1785.85 16.3118 1785.81 16.8913 1785.77 17.4707C1785.75 17.7226 1785.73 17.9745 1785.73 18.2199V132.24V136.68C1791.29 129.81 1796.21 123.72 1801.13 117.62C1804.06 113.986 1806.99 110.35 1809.93 106.714C1817.9 96.825 1825.87 86.9364 1833.87 77.0799C1834.5 76.2999 1835.58 75.38 1836.46 75.3699C1843.16 75.2686 1849.87 75.2766 1856.97 75.2851C1858.98 75.2875 1861.03 75.2899 1863.11 75.2899C1861.83 76.787 1860.63 78.1962 1859.47 79.5522L1859.41 79.6237C1857.73 81.6016 1856.14 83.4675 1854.54 85.3299C1852.48 87.7317 1850.42 90.1323 1848.35 92.5328L1848.02 92.9188C1839.2 103.183 1830.38 113.444 1821.63 123.77C1821.07 124.43 1820.93 126.13 1821.38 126.84C1834.28 146.85 1847.28 166.79 1860.29 186.73C1861.78 189.007 1863.33 191.246 1864.89 193.482L1864.91 193.521C1865.58 194.483 1866.25 195.445 1866.91 196.41V197.63L1866.92 197.64ZM726.3 26.14C725.391 29.3203 724.492 32.4664 723.599 35.587C720.948 44.8593 718.361 53.9068 715.78 62.96C712.63 74.0144 709.488 85.0714 706.346 96.1283C703.203 107.186 700.06 118.244 696.91 129.3C692.07 146.27 687.21 163.23 682.33 180.19C680.83 185.42 679.3 190.64 677.65 195.82C677.42 196.56 676.42 197.57 675.76 197.58C669.983 197.682 664.207 197.673 658.349 197.665H658.347C656.712 197.662 655.07 197.66 653.42 197.66C648.269 178.082 643.128 158.552 637.994 139.046L637.902 138.695L637.685 137.873L637.621 137.629C631.527 114.477 625.442 91.3602 619.36 68.24C619.11 68.27 618.86 68.3 618.61 68.32C617.189 73.3517 615.774 78.3846 614.359 83.4171L614.355 83.4333L614.351 83.4484C611.458 93.7377 608.566 104.026 605.62 114.3C602.884 123.843 600.111 133.377 597.337 142.912L597.334 142.924L597.33 142.936L597.321 142.967C594.95 151.119 592.578 159.271 590.23 167.43C587.64 176.44 585.09 185.47 582.68 194.53C582.07 196.83 581.21 197.82 578.61 197.73C573.954 197.574 569.287 197.604 564.462 197.635C562.469 197.647 560.448 197.66 558.39 197.66C546.484 154.306 534.584 110.981 522.632 67.4692L521.752 64.2635L520.295 58.9595L520.123 58.3329L519.653 56.6237L511.28 26.14C513.144 26.14 514.984 26.1372 516.804 26.1344C523.393 26.1243 529.734 26.1146 536.08 26.24C536.81 26.25 537.9 27.63 538.16 28.55C539.923 34.9754 541.621 41.4172 543.319 47.8596L543.32 47.8647L543.332 47.9105C544.278 51.4977 545.223 55.0851 546.18 58.67C548.296 66.5731 550.42 74.4745 552.544 82.3763L552.553 82.4083L552.561 82.4377L552.568 82.4644L552.574 82.4883L552.58 82.5097L552.586 82.531L552.591 82.5496L552.596 82.5683L552.6 82.5842C555.618 93.81 558.636 105.037 561.63 116.27C563.533 123.407 565.404 130.556 567.274 137.704C568.519 142.464 569.765 147.223 571.02 151.98C571.127 152.39 571.302 152.779 571.579 153.397L571.58 153.4L571.581 153.401L571.582 153.403V153.404C571.744 153.765 571.941 154.204 572.18 154.77C572.515 153.66 572.826 152.65 573.117 151.703L573.119 151.698L573.12 151.695L573.122 151.688C573.682 149.869 574.17 148.286 574.61 146.69C576.555 139.642 578.492 132.589 580.428 125.537C583.061 115.95 585.694 106.362 588.35 96.78C594.41 74.91 600.52 53.06 606.64 31.2C608.057 26.13 608.11 26.13 613.518 26.13H613.55C614.935 26.13 616.32 26.1376 617.705 26.1452C621.09 26.1637 624.475 26.1822 627.86 26.09C629.72 26.04 630.69 26.71 631.14 28.44C631.844 31.1341 632.546 33.8283 633.249 36.5223L633.304 36.7324C635.918 46.7578 638.533 56.782 641.19 66.8C643.566 75.7483 645.965 84.691 648.364 93.634L648.374 93.6709L648.393 93.74C650.507 101.622 652.621 109.504 654.72 117.39C656.684 124.773 658.629 132.16 660.574 139.545L660.591 139.607C661.799 144.195 663.007 148.783 664.22 153.37C664.26 153.518 664.329 153.656 664.466 153.931C664.569 154.138 664.712 154.424 664.91 154.85C665.251 153.77 665.582 152.757 665.899 151.787L665.905 151.77L665.914 151.742L665.916 151.736L665.921 151.722L665.93 151.695L665.931 151.691L665.933 151.685L665.934 151.683C666.578 149.711 667.166 147.914 667.67 146.09C670.353 136.43 673.015 126.766 675.676 117.1L675.686 117.065C677.385 110.894 679.084 104.722 680.79 98.55C682.909 90.8924 685.03 83.2359 687.151 75.5795L687.156 75.5606C691.39 60.2767 695.624 44.9928 699.84 29.7C700.52 27.23 701.5 25.89 704.58 26.03C709.564 26.2626 714.563 26.217 719.73 26.1698C721.894 26.15 724.086 26.13 726.32 26.13L726.3 26.14ZM1504.53 160.82C1503.82 163.477 1503.11 166.135 1502.41 168.79L1502.39 168.78L1501.73 168.84C1501.58 168.286 1501.43 167.732 1501.28 167.178C1501.11 166.532 1500.93 165.886 1500.76 165.239L1500.74 165.191L1500.73 165.155C1500.26 163.432 1499.8 161.708 1499.34 159.98C1494.48 141.54 1489.63 123.09 1484.79 104.64C1484.18 102.306 1483.57 99.9717 1482.96 97.6369V97.6202L1482.95 97.6034C1481.2 90.8744 1479.45 84.1457 1477.59 77.45C1477.34 76.56 1475.91 75.41 1475 75.39C1468.21 75.22 1461.41 75.24 1454.61 75.39C1453.79 75.4 1452.51 76.47 1452.27 77.29C1447.96 91.78 1443.74 106.31 1439.56 120.84C1437.57 127.784 1435.59 134.731 1433.62 141.677L1433.58 141.8V141.804V141.809V141.813V141.818V141.822V141.826V141.831V141.835C1431.59 148.811 1429.61 155.787 1427.61 162.76C1427.25 164.026 1426.79 165.271 1426.26 166.709V166.712V166.718L1426.25 166.73V166.733V166.739C1425.98 167.461 1425.7 168.232 1425.4 169.08C1424.53 165.622 1423.68 162.252 1422.85 158.942C1421.09 151.99 1419.4 145.3 1417.76 138.6C1412.81 118.4 1407.87 98.2 1403.07 77.97C1402.55 75.8 1401.69 75.26 1399.62 75.26C1392.52 75.2918 1385.41 75.2926 1378.31 75.2934C1369.78 75.2944 1361.26 75.2954 1352.73 75.35C1350.31 75.3699 1349.6 74.64 1349.66 72.26C1349.77 67.8498 1349.75 63.4346 1349.73 59.0215V59.0099V59.0088V59.0067V59.0046V59.0025C1349.72 57.2381 1349.71 55.4731 1349.71 53.71C1349.71 48.4566 1347.03 45.83 1341.68 45.83H1327.16V75.35H1311.07V95.28H1327.3V99.19C1327.3 104.477 1327.29 109.765 1327.28 115.052C1327.25 129.025 1327.22 142.997 1327.39 156.97C1327.46 163.1 1328.04 169.32 1329.3 175.31C1331.34 185.02 1336.9 192.46 1346.15 196.55C1359.18 202.3 1372.19 201.02 1385.02 195.67C1385.71 195.38 1386.59 194.04 1386.42 193.49C1385.1 189.232 1383.66 185.009 1382.24 180.827V180.819L1382.23 180.802V180.79C1381.8 179.533 1381.37 178.28 1380.95 177.03C1379.76 177.359 1378.63 177.699 1377.52 178.03C1375.24 178.713 1373.1 179.355 1370.91 179.78C1362.04 181.5 1355.21 178.32 1352.13 170.8C1350.96 167.95 1350.17 164.73 1350.13 161.67C1349.95 147.424 1349.89 133.174 1349.82 118.925V118.923V118.92V118.918V118.915V118.913V118.91V118.908V118.905C1349.79 111.776 1349.76 104.647 1349.71 97.52C1349.7 95.7899 1350.35 95.24 1352.03 95.24C1355.4 95.2537 1358.78 95.2533 1362.15 95.2529C1368.62 95.2521 1375.09 95.2514 1381.56 95.35C1382.44 95.36 1383.84 96.52 1384.09 97.4C1388.38 112.33 1392.54 127.3 1396.68 142.27C1398.21 147.797 1399.73 153.327 1401.25 158.857L1401.26 158.885L1401.27 158.91C1404.64 171.153 1408.01 183.398 1411.46 195.62C1411.7 196.48 1413.21 197.55 1414.15 197.57C1421.15 197.74 1428.15 197.74 1435.15 197.57C1436.03 197.55 1437.36 196.39 1437.66 195.48C1439.34 190.41 1440.81 185.26 1442.26 180.12C1445.38 169.095 1448.48 158.07 1451.59 147.045C1454.7 136.02 1457.81 124.995 1460.92 113.97C1461.5 111.922 1462.13 109.887 1462.82 107.656V107.641V107.629L1462.83 107.602L1462.84 107.583V107.561L1462.85 107.549L1462.88 107.456C1463.25 106.262 1463.63 105.01 1464.04 103.67C1464.28 104.06 1464.46 104.331 1464.6 104.532C1464.79 104.831 1464.89 104.979 1464.94 105.14C1465.98 108.865 1467.02 112.589 1468.07 116.312C1471.08 127.065 1474.09 137.817 1477.07 148.58C1481.38 164.14 1485.66 179.7 1489.85 195.29C1490.34 197.13 1491.14 197.72 1492.97 197.7C1499.46 197.63 1505.96 197.64 1512.45 197.7C1514.24 197.72 1515.12 197.22 1515.59 195.3C1516.79 190.408 1518.19 185.571 1519.6 180.734L1519.71 180.332L1520.11 178.96C1524.88 162.455 1529.67 145.968 1534.47 129.474L1534.5 129.378L1534.54 129.239L1535.71 125.2C1536.96 120.894 1538.22 116.594 1539.49 112.294V112.277L1539.5 112.257V112.234L1539.51 112.208L1539.52 112.176L1539.53 112.145C1541.18 106.529 1542.83 100.914 1544.45 95.29C1545.78 90.6664 1547.06 86.0279 1548.37 81.2754L1548.38 81.2436C1548.92 79.2841 1549.46 77.3052 1550.02 75.3C1548.38 75.3 1546.76 75.297 1545.15 75.294C1539.58 75.2836 1534.16 75.2735 1528.74 75.39C1528.02 75.41 1526.92 76.58 1526.7 77.4C1524.45 85.6484 1522.27 93.9075 1520.09 102.17C1519.29 105.226 1518.48 108.283 1517.67 111.34C1515.83 118.26 1514 125.177 1512.16 132.095C1510.32 139.012 1508.49 145.93 1506.65 152.85C1506.18 154.602 1505.72 156.354 1505.25 158.107L1504.53 160.803V160.82ZM1150.9 26.38V153.319C1150.53 152.896 1150.24 152.569 1150 152.302L1149.99 152.295V152.289C1149.55 151.804 1149.29 151.518 1149.07 151.21L1144.1 144.494L1142.99 142.998C1133.91 130.725 1124.82 118.449 1115.75 106.16L1111.26 100.083L1111.2 100.002C1093.54 76.0741 1075.87 52.1433 1058.27 28.17C1057.08 26.54 1055.85 26.06 1053.98 26.1C1049.11 26.2 1044.23 26.3 1039.37 26.07C1036.44 25.93 1035.84 27.03 1035.85 29.73C1035.92 47.9501 1035.91 66.1642 1035.9 84.3815C1035.9 89.9806 1035.9 95.5801 1035.9 101.18C1035.9 107.701 1035.9 114.222 1035.9 120.743C1035.91 145.232 1035.92 169.721 1035.83 194.21C1035.81 197.11 1036.71 197.82 1039.43 197.72C1043.25 197.585 1047.07 197.612 1050.9 197.638C1052.45 197.649 1054.01 197.66 1055.56 197.66C1058.4 197.66 1059.82 196.237 1059.82 193.39C1059.82 154.28 1059.82 115.16 1059.83 76.04C1059.83 75.2632 1059.9 74.4863 1059.99 73.4734C1060.05 72.8696 1060.11 72.1817 1060.17 71.36C1060.36 71.5851 1060.53 71.7943 1060.7 71.9902C1060.79 72.1057 1060.89 72.2165 1060.98 72.3232L1061.19 72.5828L1061.33 72.7457V72.7468L1061.34 72.7501V72.7514V72.7541C1061.97 73.5005 1062.42 74.0374 1062.84 74.6C1071.83 86.7973 1080.81 99.0014 1089.8 111.204C1096.19 119.891 1102.58 128.577 1108.98 137.26C1123.34 156.77 1137.71 176.27 1152.11 195.75C1152.67 196.51 1153.57 197.53 1154.33 197.55C1159.45 197.658 1164.57 197.647 1169.72 197.636C1171.27 197.633 1172.82 197.63 1174.38 197.63V26.38H1150.9ZM892.4 178.97C875.14 172.91 866.79 154.28 867.28 142.3L867.26 142.29H870.79C876.815 142.29 882.84 142.288 888.864 142.286C911.456 142.28 934.043 142.273 956.63 142.36C959.39 142.37 960.5 141.5 960.55 138.88C960.579 137.362 960.639 135.844 960.7 134.325C960.808 131.594 960.917 128.862 960.84 126.13C960.44 111.49 955.48 98.46 944.95 88.27C928.41 72.26 908.53 68.54 886.85 75.2C864.59 82.04 851.75 98.11 846.03 120.02C842.7 132.78 843.54 145.71 847.19 158.4C850.76 170.78 857.3 181.23 867.66 189.06C881.17 199.26 896.62 201.56 913.07 200.3C931.18 198.91 945.47 191.01 955.98 176.31C956.242 175.942 956.485 175.606 956.707 175.298L956.708 175.297C958.087 173.384 958.694 172.542 958.523 171.91C958.388 171.414 957.772 171.047 956.673 170.393L956.672 170.392C956.097 170.05 955.39 169.629 954.55 169.07C951.808 167.242 948.997 165.513 946.183 163.782L946.181 163.781L946.18 163.78L946.178 163.779C944.991 163.049 943.803 162.319 942.62 161.58C931.33 181.92 907.47 184.26 892.4 178.97ZM869.426 123.835C869.233 123.769 868.986 123.686 868.65 123.59H868.64C872.26 110.48 878.62 99.63 891.54 94.35C912.78 85.67 934.32 98.52 937.35 121.2C937.62 123.22 937.28 124.04 935.19 124.04C922.162 124.022 909.134 124.015 896.106 124.008C887.424 124.003 878.742 123.998 870.06 123.99C869.886 123.99 869.716 123.932 869.426 123.835ZM1286.75 161.53C1287.92 162.271 1289.08 162.999 1290.22 163.719V163.72C1294.03 166.118 1297.71 168.43 1301.3 170.86C1301.88 171.25 1302.19 173.1 1301.78 173.72C1293.78 185.99 1283.12 194.72 1268.62 198.37C1257.21 201.25 1245.68 201.64 1234.28 199.2C1215.83 195.24 1202.47 184.5 1194.57 167.23C1188.12 153.13 1186.55 138.21 1189.52 123.31C1194.19 99.92 1207.31 82.95 1230.68 75.21C1256.56 66.65 1286.59 76.18 1299.37 102.83C1305.08 114.73 1306.51 127.38 1304.25 140.39C1304.12 141.12 1302.98 141.85 1302.15 142.22C1301.68 142.429 1301.08 142.381 1300.49 142.332C1300.24 142.311 1299.98 142.29 1299.74 142.29C1293.05 142.29 1286.37 142.292 1279.68 142.294C1257.96 142.302 1236.23 142.309 1214.51 142.24C1211.65 142.24 1210.62 143.05 1211.17 145.89C1213.42 157.71 1218.31 167.92 1228.62 174.9C1237.97 181.23 1248.29 182.26 1259.13 180.59C1268.83 179.1 1276.92 174.84 1282.97 167.01C1283.83 165.899 1284.6 164.725 1285.44 163.464C1285.85 162.841 1286.27 162.198 1286.73 161.53H1286.75ZM1213.63 123.849C1213.52 123.823 1213.39 123.793 1213.25 123.762C1213.04 123.718 1212.82 123.671 1212.55 123.621C1212.95 122.56 1213.32 121.509 1213.68 120.472V120.46C1214.45 118.237 1215.2 116.078 1216.19 114.03C1223.09 99.72 1233.99 91.28 1250.48 91.76C1263.49 92.14 1272.44 99 1278.09 110.29C1279.38 112.876 1280.12 115.748 1280.85 118.607V118.609C1281.1 119.565 1281.34 120.519 1281.61 121.46C1282.09 123.15 1281.43 124.06 1279.44 124.06C1266.5 124.036 1253.55 124.034 1240.6 124.031H1240.59C1231.95 124.03 1223.32 124.028 1214.68 124.02C1214.39 124.02 1214.09 123.952 1213.63 123.849ZM1674.44 138.62C1675.53 100.19 1646.47 71.82 1611.99 72.31L1611.98 72.32C1576.57 71.98 1549.29 99.98 1549.2 136.58C1549.12 172.67 1576.5 200.62 1611.59 200.7C1647.91 200.78 1673.48 172.28 1674.44 138.62ZM1643.57 110.25C1648.91 118.2 1651.34 127.02 1651.48 138.21V138.22C1650.63 153.45 1644.58 167.56 1628.9 175.7C1612.02 184.47 1592.47 179.41 1581.17 164C1567.14 144.86 1569.81 117.28 1587.66 101.96C1604.4 87.58 1630.38 90.64 1643.57 110.25ZM849.09 73.97C828.662 68.2634 815.206 77.0097 804.509 93.1614C804.49 92.8333 804.467 92.5051 804.444 92.177C804.392 91.4413 804.34 90.7057 804.34 89.97C804.334 88.6312 804.338 87.2914 804.341 85.9512C804.35 83.137 804.358 80.3212 804.27 77.51C804.24 76.76 803.4 75.4 802.92 75.4C797.284 75.2948 791.649 75.301 786.045 75.3071H786.043H786.038H786.033C784.72 75.3086 783.409 75.31 782.1 75.31C782.037 75.5502 781.981 75.7419 781.933 75.9016V75.9031C781.845 76.2013 781.79 76.3878 781.79 76.57C781.783 89.7901 781.779 103.01 781.774 116.23C781.766 142.63 781.757 169.03 781.73 195.43C781.72 197.16 782.35 197.71 784.04 197.69C784.439 197.685 784.839 197.68 785.238 197.674L786.282 197.659C791.015 197.592 795.746 197.524 800.47 197.74C803.54 197.88 804.41 197.02 804.39 193.89C804.26 168.86 804.27 143.83 804.4 118.8C804.41 116.74 805.34 114.52 806.34 112.65C807.52 110.45 809.14 108.45 810.76 106.52C818.52 97.29 828.28 93.54 840.23 96.08C841.238 96.2936 842.223 96.6052 843.303 96.9464C843.84 97.1164 844.401 97.2938 845 97.47C846.41 89.35 847.75 81.66 849.09 73.97ZM1685.48 75.42H1685.47L1685.48 75.4V75.42ZM1685.48 75.42H1707.98V93.46C1713.55 86.25 1718.98 79.45 1727.04 75.29C1735.31 71.03 1743.85 71.89 1752.75 73.74C1752.55 75.0548 1752.36 76.3582 1752.17 77.6534C1751.77 80.3574 1751.38 83.026 1750.95 85.69C1750.7 87.2427 1750.41 88.7879 1750.12 90.3319V90.3338L1750.11 90.3351C1749.83 91.8625 1749.54 93.3888 1749.29 94.92C1748.99 96.76 1748.39 97.68 1746.28 96.94C1735.2 93.03 1723 96.36 1715.49 105.27L1715.02 105.825C1714.06 106.948 1713.11 108.071 1712.21 109.23C1709.3 112.98 1707.78 116.95 1707.84 122C1708.02 136.708 1708.01 151.42 1708 166.132C1707.99 175.545 1707.99 184.958 1708.03 194.37C1708.04 197.12 1707.22 197.82 1704.59 197.72C1699.22 197.53 1693.83 197.51 1688.46 197.72C1685.63 197.84 1685.44 196.53 1685.44 194.27C1685.48 163.079 1685.48 131.887 1685.48 100.696V85.1V75.42ZM738.07 75.2901C739.648 75.2901 741.209 75.287 742.756 75.284C748.109 75.2737 753.298 75.2637 758.48 75.3801C759.15 75.39 759.97 76.5 760.4 77.2801C760.608 77.654 760.557 78.1766 760.505 78.6985C760.483 78.93 760.46 79.1619 760.46 79.3801C760.46 87.0009 760.459 94.6222 760.458 102.244V102.315C760.453 132.763 760.448 163.215 760.52 193.66C760.52 196.75 759.88 197.95 756.54 197.76C751.706 197.484 746.846 197.589 742 197.693H741.994C741.569 197.702 741.144 197.711 740.72 197.72C738.74 197.76 737.84 197.36 737.84 195.08C737.893 160.775 737.891 126.47 737.89 92.1713C737.89 87.2674 737.89 82.3636 737.89 77.4601C737.89 77.0792 737.927 76.7026 737.976 76.2198V76.2181C738.002 75.9534 738.032 75.6568 738.06 75.3101L738.07 75.2901ZM737.897 46.667C737.898 48.2841 737.9 49.9171 737.9 51.5701V51.5601C739.484 51.5601 741.047 51.5625 742.593 51.5649C748.085 51.5733 753.367 51.5815 758.65 51.4801C759.26 51.4701 760.36 50.3501 760.37 49.7301C760.5 42.5401 760.51 35.3501 760.37 28.1601C760.36 27.4701 759.17 26.2401 758.51 26.2201C752.23 26.0801 745.94 26.0901 739.65 26.2201C739.05 26.2401 737.98 27.3801 737.98 28.0101C737.884 34.1461 737.89 40.2821 737.897 46.667Z" fill="#B3B3B3"/>
</g>
</svg>
